<?xml version="1.0" standalone="no"?>
<!DOCTYPE svg PUBLIC "-//W3C//DTD SVG 20010904//EN"
 "http://www.w3.org/TR/2001/REC-SVG-20010904/DTD/svg10.dtd">
<svg version="1.0" xmlns="http://www.w3.org/2000/svg"
 width="1925.000000pt" height="363.000000pt" viewBox="0 0 1925.000000 363.000000"
 preserveAspectRatio="xMidYMid meet">
 
<g transform="translate(0.000000,162.000000) scale(0.100000,-0.100000)"
fill="#000000" stroke="none">
<path d="M2841 1193 c0 -4 18 -39 39 -78 21 -38 66 -123 99 -188 33 -64 69
-129 80 -144 19 -24 21 -39 21 -194 l0 -169 75 0 75 0 0 161 0 160 40 84 c22
46 44 86 49 89 5 3 36 62 69 130 34 68 66 127 71 131 28 17 4 25 -74 25 l-85
0 -50 -102 c-73 -149 -87 -173 -98 -173 -6 0 -41 61 -79 135 l-69 135 -82 3
c-45 2 -82 -1 -81 -5z m188 -80 c17 -32 49 -97 72 -145 23 -49 45 -88 48 -88
3 0 16 17 29 38 20 33 35 64 107 215 l17 37 64 0 63 0 -23 -52 c-13 -29 -48
-96 -78 -148 -30 -53 -68 -126 -86 -164 -31 -67 -32 -71 -32 -212 l0 -144 -55
0 -55 0 0 150 0 149 -32 53 c-17 29 -58 105 -90 168 -33 63 -71 134 -84 158
l-25 42 65 0 66 0 29 -57z"/>
<path d="M3760 941 c0 -4 20 -39 45 -77 40 -61 45 -74 45 -127 l0 -58 38 3 37
3 3 59 c2 46 10 70 36 110 18 28 40 57 49 65 25 20 21 31 -12 31 -22 0 -39
-11 -70 -47 l-41 -48 -43 48 c-27 29 -52 47 -65 47 -12 0 -22 -4 -22 -9z"/>
<path d="M4090 854 l0 -97 43 -39 c40 -38 45 -40 93 -36 87 7 128 74 122 198
-3 59 -5 65 -25 68 -22 3 -23 1 -23 -73 0 -71 -2 -79 -29 -106 -32 -32 -47
-35 -86 -17 -30 13 -34 28 -37 123 -3 68 -4 70 -30 73 l-28 3 0 -97z"/>
<path d="M4617 943 c-4 -3 -7 -64 -7 -135 l0 -128 83 0 c81 0 84 1 115 33 35
36 41 67 17 87 -11 9 -14 23 -9 46 9 47 -4 74 -42 90 -34 14 -145 19 -157 7z
m153 -68 c0 -24 -3 -25 -55 -25 -52 0 -55 1 -55 25 0 24 3 25 55 25 52 0 55
-1 55 -25z m10 -110 c0 -24 -3 -25 -60 -25 -57 0 -60 1 -60 25 0 24 3 25 60
25 57 0 60 -1 60 -25z"/>
<path d="M4920 816 l0 -136 110 0 110 0 0 35 0 35 -80 0 -79 0 -3 98 -3 97
-27 3 -28 3 0 -135z"/>
<path d="M5260 928 c-42 -27 -47 -33 -60 -78 -23 -83 45 -170 134 -170 133 0
182 197 62 254 -47 22 -94 20 -136 -6z m120 -43 c54 -28 50 -114 -6 -135 -42
-16 -74 -11 -101 16 -21 21 -24 32 -19 62 10 65 64 89 126 57z"/>
<path d="M5620 937 c-37 -19 -70 -74 -69 -116 1 -47 7 -62 47 -105 29 -32 38
-36 81 -36 40 0 53 5 80 30 26 25 31 38 31 75 l0 45 -60 0 c-53 0 -60 -2 -60
-20 0 -16 7 -20 35 -20 28 0 35 -4 35 -19 0 -36 -72 -43 -114 -10 -32 26 -37
86 -7 113 24 22 83 31 108 17 15 -7 25 -7 38 3 16 12 16 14 -10 34 -32 25 -95
29 -135 9z"/>
</g>
</svg>
