<svg xmlns="http://www.w3.org/2000/svg" xmlns:xlink="http://www.w3.org/1999/xlink" width="2560" height="480" preserveAspectRatio="xMidYMid meet">
<g id="Symbol">
<g fill="#455A5E" stroke="none">
<path d="M6910 2560 l-40 -40 0 -668 0 -668 36 -42 36 -42 677 0 678 0 36 40
37 39 0 667 c0 658 0 666 -21 695 -43 61 -16 59 -739 59 l-660 0 -40 -40z
m457 -507 l82 -88 1 88 0 87 65 0 65 0 0 -280 0 -280 -65 0 -65 0 0 88 -1 87
-36 -40 c-20 -22 -56 -62 -80 -88 l-45 -48 -80 3 -80 3 121 134 c66 74 121
137 121 140 0 3 -54 65 -120 138 -66 73 -120 135 -120 138 0 3 35 5 78 5 l77
1 82 -88z m433 0 l1 -88 80 88 81 87 80 0 c46 0 78 -4 76 -9 -1 -6 -56 -69
-122 -141 l-119 -131 30 -32 c117 -127 213 -235 213 -241 0 -3 -37 -6 -82 -6
l-83 1 -75 84 -75 85 -3 -85 -3 -85 -64 0 -65 0 0 280 0 280 65 0 65 0 0 -87z"/>
<path d="M11060 1830 l0 -320 55 0 55 0 0 320 0 320 -55 0 -55 0 0 -320z"/>
<path d="M8800 1820 l0 -310 55 0 54 0 3 157 3 158 79 -143 c44 -79 85 -150
91 -158 8 -11 26 -14 68 -12 l58 3 -96 154 c-53 85 -94 160 -91 166 2 6 42 69
88 141 46 71 87 135 92 142 5 9 -6 12 -47 12 l-55 0 -80 -132 c-122 -200 -111
-198 -112 -20 l0 152 -55 0 -55 0 0 -310z"/>
<path d="M9290 2127 c0 -2 34 -81 75 -177 l75 -174 0 -133 0 -133 55 0 55 0 0
133 0 133 75 169 c41 93 75 172 75 177 0 4 -22 8 -49 8 -37 0 -51 -4 -56 -17
-4 -10 -24 -67 -46 -126 -22 -60 -43 -115 -47 -123 -5 -10 -25 33 -58 126
l-49 140 -52 0 c-29 0 -53 -1 -53 -3z"/>
<path d="M9810 1880 c0 -268 4 -294 51 -337 68 -61 233 -56 296 9 l28 29 3
275 3 274 -51 0 -50 0 0 -222 c-1 -240 -8 -304 -36 -325 -28 -21 -88 -16 -110
8 -17 19 -19 42 -22 280 l-3 259 -54 0 -55 0 0 -250z"/>
<path d="M10590 1820 l0 -312 118 3 c95 3 124 8 152 24 49 29 72 77 67 143 -4
61 -28 100 -75 122 -17 8 -31 17 -31 20 0 3 14 14 32 25 47 30 69 79 63 142
-9 105 -57 135 -218 141 l-108 4 0 -312z m193 220 c50 -40 43 -146 -13 -175
-16 -8 -38 -15 -50 -15 -19 0 -20 6 -20 105 l0 105 29 0 c15 0 40 -9 54 -20z
m11 -279 c15 -15 20 -34 20 -75 1 -66 -20 -93 -77 -103 l-37 -6 0 108 0 108
37 -6 c20 -4 46 -15 57 -26z"/>
<path d="M11380 1928 c-70 -36 -85 -71 -85 -203 0 -92 3 -116 20 -145 25 -43
94 -80 150 -80 56 0 125 37 150 80 17 29 20 53 20 145 0 92 -3 116 -20 145
-25 43 -94 80 -150 80 -22 0 -61 -10 -85 -22z m124 -53 c22 -22 28 -70 24
-185 -3 -109 -14 -130 -63 -130 -43 0 -59 33 -63 135 -7 146 9 195 63 195 13
0 30 -7 39 -15z"/>
<path d="M11804 1931 c-20 -12 -37 -34 -45 -58 -16 -48 -16 -247 1 -288 34
-88 133 -113 196 -50 l24 24 0 -79 c0 -90 -12 -110 -64 -110 -35 0 -59 20 -70
58 -6 19 -14 22 -57 22 -49 0 -49 0 -43 -27 17 -78 51 -98 169 -98 91 1 140
20 155 61 6 14 10 144 10 290 l0 264 -50 0 c-45 0 -50 -2 -50 -22 l0 -21 -25
23 c-34 32 -109 38 -151 11z m157 -67 c15 -18 25 -174 15 -228 -13 -68 -70
-90 -103 -39 -26 39 -26 217 0 256 20 31 66 37 88 11z"/>
</g>
</g>
</svg>
